<?xml version="1.0" encoding="iso-8859-1"?>
<!-- Generator: Adobe Illustrator 19.0.0, SVG Export Plug-In . SVG Version: 6.00 Build 0)  -->
<svg version="1.1" id="Capa_1" xmlns="http://www.w3.org/2000/svg" xmlns:xlink="http://www.w3.org/1999/xlink" x="0px" y="0px"
	 viewBox="0 0 512 512" style="enable-background:new 0 0 512 512;" xml:space="preserve">
<path style="fill:#FEDB41;" d="M150,437.289V159.54C130.264,156.788,30,140.846,30,121H0v270c0,36.442,62.732,55.107,120.348,64.677
	L150,437.289z"/>
<path style="fill:#FCBF29;" d="M482,121c0,16.067-74.282,31.314-90,34.644v272.424l29.691,21.753
	C481.379,436.161,512,416.448,512,391V121H482z"/>
<path style="fill:#FEA832;" d="M256,166c-66,0-106-6.301-136-10.8v300.599l12.9,2.1c37.5,5.1,80.801,8.101,123.1,8.101
	c56.7,0,110.799-4.801,153.999-13.5L422,450.099V149.5C377.601,158.5,332.5,166,256,166z"/>
<path style="fill:#FE9923;" d="M422,149.5v300.599l-12.001,2.401C366.799,461.199,312.7,466,256,466V166
	C332.5,166,377.601,158.5,422,149.5z"/>
<path style="fill:#57555C;" d="M336.965,280.306l-19.321,23.521c-10.08-11.55-24.57-19.11-38.221-19.11
	c-25.201,0-44.731,19.53-44.731,45.151s19.53,45.361,44.731,45.361c13.23,0,27.721-6.72,38.221-17.221l19.531,21.211
	c-15.541,15.96-38.012,26.251-59.433,26.251c-43.891,0-77.072-32.551-77.072-75.183c0-42.421,33.812-74.342,78.333-74.342
	C300.213,255.945,322.474,265.396,336.965,280.306z"/>
<g>
	<path style="fill:#3C3A41;" d="M317.644,303.827l19.321-23.521c-14.491-14.911-36.752-24.361-57.962-24.361
		c-8.067,0-15.776,1.062-23.003,3.03v32.123c6.761-4.073,14.757-6.382,23.423-6.382
		C293.073,284.716,307.563,292.276,317.644,303.827z"/>
	<path style="fill:#3C3A41;" d="M279.423,375.229c-8.666,0-16.662-2.334-23.423-6.44v33.84c6.851,1.841,14.13,2.841,21.742,2.841
		c21.421,0,43.892-10.291,59.433-26.251l-19.531-21.211C307.144,368.509,292.653,375.229,279.423,375.229z"/>
</g>
<path style="fill:#FE8821;" d="M512,121c0,14.099-9,26.4-27.9,36.899l-58.5,5.4C382.4,145.899,320.2,136,256,136
	c-48.6,0-96.4,5.7-134.801,16.199l-93.3,5.7C9,147.4,0,135.099,0,121c0-59.401,167.8-75,256-75S512,61.599,512,121z"/>
<path style="fill:#E5741A;" d="M512,121c0,14.099-9,26.4-27.9,36.899l-58.5,5.4C382.4,145.899,320.2,136,256,136V46
	C344.2,46,512,61.599,512,121z"/>
<path style="fill:#BF6015;" d="M455.3,143.5C407.601,119.799,334.3,106,256,106s-151.601,13.799-199.3,37.5l-28.8,14.399
	c8.699,5.099,22.2,10.499,30.601,13.2h0.3C105.901,187,178.299,196,256,196c56.7,0,110.799-4.801,153.999-13.5
	c23.701-4.8,53.401-12.3,74.101-24.601L455.3,143.5z"/>
<path style="fill:#994C10;" d="M484.1,157.899c-20.7,12.301-50.4,19.801-74.101,24.6C366.799,191.199,312.7,196,256,196v-90
	c78.3,0,151.601,13.799,199.3,37.5L484.1,157.899z"/>
<g>
</g>
<g>
</g>
<g>
</g>
<g>
</g>
<g>
</g>
<g>
</g>
<g>
</g>
<g>
</g>
<g>
</g>
<g>
</g>
<g>
</g>
<g>
</g>
<g>
</g>
<g>
</g>
<g>
</g>
</svg>
